<?xml version="1.0" encoding="utf-8"?>
<!-- Generator: Adobe Illustrator 26.4.1, SVG Export Plug-In . SVG Version: 6.00 Build 0)  -->
<svg version="1.1" id="Capa_1" xmlns="http://www.w3.org/2000/svg" xmlns:xlink="http://www.w3.org/1999/xlink" x="0px" y="0px"
	 viewBox="0 0 100 100" style="enable-background:new 0 0 100 100;" xml:space="preserve">
<style type="text/css">
	.st0{fill:#FFFFFF;}
</style>
<g>
	<path class="st0" d="M62.5,56.3c-2.52,0-4.85,0-7.19,0c-1.63,0-1.87-0.23-1.87-1.8c0-9.11-0.03-18.21,0.01-27.32
		c0.03-6.95,4.85-11.69,11.82-11.7c2.68,0,5.36-0.01,8.05,0c1.91,0,2.74,0.79,2.74,2.65c0.01,18.67,0.01,37.34,0,56
		c0,3-1.9,4.84-4.9,4.86c-1.28,0.01-2.57,0.01-3.85,0c-2.86-0.02-4.76-1.88-4.77-4.76c-0.03-5.52-0.01-11.03-0.01-16.55
		C62.5,57.26,62.5,56.86,62.5,56.3z"/>
	<path class="st0" d="M30.76,61.08c0-4.39-0.01-8.77,0.01-13.16c0-0.71-0.16-1.12-0.86-1.48c-2.31-1.21-3.65-3.17-3.66-5.82
		c-0.04-7.56-0.03-15.12-0.02-22.68c0-1.47,0.96-2.46,2.25-2.45c1.29,0.01,2.2,1,2.21,2.49c0.02,4.57,0,9.15,0.01,13.72
		c0,0.45,0.01,0.91,0.12,1.35c0.25,1.05,1.19,1.74,2.24,1.71c1-0.03,1.88-0.72,2.11-1.73c0.1-0.44,0.11-0.9,0.11-1.35
		c0.01-4.61,0-9.22,0.02-13.84c0.01-1.22,0.7-2.08,1.77-2.32c0.95-0.21,2.05,0.29,2.44,1.22c0.19,0.47,0.24,1.03,0.24,1.54
		c0.02,4.46,0.01,8.92,0.02,13.38c0,0.45,0.01,0.91,0.11,1.35c0.24,1.05,1.18,1.76,2.23,1.73c1-0.02,1.89-0.71,2.13-1.71
		c0.11-0.47,0.12-0.97,0.12-1.46c0.01-4.5,0.02-9,0-13.5c0-1.13,0.36-2,1.46-2.44c1.25-0.51,2.7,0.28,2.96,1.61
		c0.04,0.22,0.06,0.45,0.06,0.68c0,7.56,0.02,15.12-0.02,22.68c-0.01,2.65-1.35,4.61-3.66,5.82c-0.7,0.37-0.86,0.77-0.86,1.48
		c0.02,8.58-0.08,17.16,0.06,25.74c0.06,3.57-2.49,5.62-5.4,5.34c-1.12-0.11-2.27-0.01-3.4-0.02c-2.86-0.02-4.76-1.88-4.78-4.75
		C30.74,69.85,30.76,65.46,30.76,61.08z"/>
</g>
</svg>
