<?xml version="1.0" encoding="utf-8"?>
<!-- Generator: Adobe Illustrator 26.4.1, SVG Export Plug-In . SVG Version: 6.00 Build 0)  -->
<svg version="1.1" id="Capa_1" xmlns="http://www.w3.org/2000/svg" xmlns:xlink="http://www.w3.org/1999/xlink" x="0px" y="0px"
	 viewBox="0 0 100 100" style="enable-background:new 0 0 100 100;" xml:space="preserve">
<style type="text/css">
	.st0{fill:#FFFFFF;}
</style>
<g>
	<path class="st0" d="M18.91,38.9c0.03-0.41,0.07-0.85,0.1-1.29c0.31-4.29,5.64-7.58,12.4-7.46c12.38,0.22,24.75,0.24,37.13,0
		c6.86-0.13,12.4,3.17,12.46,7.54c0.13,8.55,0.06,17.11,0.04,25.66c0,1.48-1.37,2.33-3.7,2.33c-20.78,0.01-35.38,0.05-56.16-0.02
		c0,0-2.05-0.31-2.05-2.26S18.91,38.9,18.91,38.9z"/>
	<path class="st0" d="M81.82,77.39H18.18c-2.21,0-4.02-1.81-4.02-4.02v0c0-2.21,1.81-4.02,4.02-4.02h63.64
		c2.21,0,4.02,1.81,4.02,4.02v0C85.84,75.58,84.03,77.39,81.82,77.39z"/>
	<ellipse class="st0" cx="50" cy="27.51" rx="5.13" ry="4.9"/>
</g>
</svg>
