<?xml version="1.0" encoding="utf-8"?>
<!-- Generator: Adobe Illustrator 26.4.1, SVG Export Plug-In . SVG Version: 6.00 Build 0)  -->
<svg version="1.1" id="Capa_1" xmlns="http://www.w3.org/2000/svg" xmlns:xlink="http://www.w3.org/1999/xlink" x="0px" y="0px"
	 viewBox="0 0 100 100" style="enable-background:new 0 0 100 100;" xml:space="preserve">
<style type="text/css">
	.st0{fill:#FFFFFF;}
</style>
<path class="st0" d="M67.49,52.33c-0.02,0.47-0.05,0.96-0.08,1.45c-0.22,4.73-3.93,8.38-8.69,8.4c-9.17,0.04-18.35,0.04-27.52,0
	c-4.82-0.02-8.66-3.68-8.7-8.49c-0.09-9.63-0.05-19.26-0.03-28.89c0-1.67,0.99-2.62,2.68-2.62c15.05-0.01,30.11-0.06,45.16,0.03
	c7.36,0.04,13.85,6.08,14.56,13.11c0.96,9.48-5.82,15.41-11.73,16.52C71.32,52.17,69.43,52.17,67.49,52.33z M67.51,44.59
	c3.61,0.43,6.77-0.16,8.81-3.41c1.65-2.63,1.65-5.41,0-8.03c-2.04-3.24-5.21-3.85-8.81-3.39C67.51,34.71,67.51,39.64,67.51,44.59z"
	/>
<path class="st0" d="M82.3,67.27c0.5,4.15-3.18,8.81-7.6,9.67c-0.81,0.16-1.65,0.25-2.48,0.25c-16.51,0.01-33.02,0.02-49.53,0.01
	c-5,0-9.02-3.18-10.05-7.9c-0.14-0.63-0.13-1.3-0.2-2.03C35.82,67.27,59.06,67.27,82.3,67.27z"/>
</svg>
