<?xml version="1.0" encoding="utf-8"?>
<!-- Generator: Adobe Illustrator 26.4.1, SVG Export Plug-In . SVG Version: 6.00 Build 0)  -->
<svg version="1.1" id="Capa_1" xmlns="http://www.w3.org/2000/svg" xmlns:xlink="http://www.w3.org/1999/xlink" x="0px" y="0px"
	 viewBox="0 0 100 100" style="enable-background:new 0 0 100 100;" xml:space="preserve">
<style type="text/css">
	.st0{fill:#FFFFFF;}
</style>
<g>
	<g>
		<path class="st0" d="M84.01,21.54c-0.69-2-2.63-3.16-4.74-2.82c-1.87,0.3-3.39,2.07-3.41,3.98c-0.03,2.19,1.35,3.87,3.51,4.29
			c1.9,0.37,3.88-0.82,4.59-2.74c0.07-0.18,0.16-0.34,0.24-0.52c0-0.57,0-1.15,0-1.72C84.14,21.85,84.07,21.7,84.01,21.54z"/>
		<path class="st0" d="M78.49,31.04c-0.55-0.38-1.29-0.49-1.94-0.71c-0.02,0.03-0.04,0.06-0.06,0.09c-0.41,0.08-0.84,0.1-1.22,0.25
			c-2.28,0.86-3.93,2.4-4.84,4.67c-0.59,1.46-0.23,3.14,0.96,4.17c0.78,0.68,1.62,1.3,2.51,1.81c1.41,0.82,2.83,0.69,4.16-0.25
			c1.37-0.97,2.47-2.21,3.24-3.7c0.76-1.46,0.68-2.94-0.39-4.2C80.21,32.36,79.37,31.65,78.49,31.04z"/>
		<path class="st0" d="M72.76,23.54c-0.14-1.39-0.65-2.77-1.19-4.08c-0.39-0.94-1.3-1.53-2.33-1.68c-1.02-0.14-2.06-0.14-3.09-0.14
			c-1.68,0-3.13,1.06-3.65,2.65c-0.26,0.79-0.49,1.6-0.69,2.41c-0.58,2.4,1.15,4.66,3.63,4.74c0.59,0.02,1.19,0,1.79,0
			c0.62,0,1.24,0.02,1.85,0C71.21,27.39,72.97,25.66,72.76,23.54z"/>
	</g>
	<g>
		<path class="st0" d="M84.06,47.36l-2.51-0.14l-3.08-0.57l-1.94,0.29c-9.61,2.51-11.77-5.67-11.77-5.67
			c-11.19-4.73-7.25-15.14-7.25-15.14c-6.74-0.79-7.75-8.9-7.75-8.9l0.58-0.18c-18.72,0.01-33.89,15.09-33.89,33.7
			c0,18.61,15.18,33.7,33.91,33.7c18.73,0,33.91-15.09,33.91-33.7L84.06,47.36z M38.02,32.3c3.23,0.01,5.84,2.65,5.84,5.92
			c0,3.25-2.7,5.95-5.94,5.93c-3.23-0.01-5.93-2.73-5.92-5.97C32,34.9,34.67,32.29,38.02,32.3z M38.13,70.77
			c-4.43,0.02-8.18-3.67-8.28-8.02c-0.09-4.33,3.29-8.37,8.17-8.45c4.52-0.07,8.23,3.66,8.27,8.21
			C46.32,66.99,42.61,70.75,38.13,70.77z M50.28,52.25c-2.23-0.01-4.07-1.87-4.05-4.11c0.02-2.26,1.84-4.05,4.1-4.05
			c2.24,0,4.09,1.84,4.1,4.07C54.44,50.39,52.55,52.26,50.28,52.25z M58.16,73.81c-2.22,0.03-4.15-1.9-4.13-4.13
			c0.02-2.23,1.89-4.09,4.1-4.08c2.22,0.01,4.1,1.88,4.11,4.09C62.25,71.88,60.37,73.78,58.16,73.81z M66.43,63.1
			c-3.11-0.01-5.72-2.66-5.69-5.76c0.03-3.12,2.66-5.71,5.77-5.69c3.12,0.02,5.69,2.63,5.68,5.76
			C72.18,60.53,69.56,63.11,66.43,63.1z"/>
	</g>
	<path class="st0" d="M48.06,84.66c-1.2-0.17-2.4-0.31-3.59-0.52c-7.31-1.3-13.52-4.68-18.64-10.04C21.09,69.11,18.1,63.2,17,56.4
		c-1.31-8.03,0.07-15.61,4.12-22.68c0.5-0.87,1.28-1.09,2.06-0.63c0.62,0.36,0.76,1.18,0.29,1.99c-1.89,3.3-3.17,6.82-3.79,10.57
		c-0.47,2.84-0.53,5.69-0.22,8.56c0.43,3.9,1.49,7.61,3.37,11.04c4.58,8.39,11.49,13.83,20.86,15.93
		c13.87,3.11,27.58-3.45,34.2-15.61c1.93-3.54,3.11-7.32,3.51-11.33c0.18-1.82,0.37-3.64,0.12-5.36c-1.34-0.32-2.61-0.63-3.89-0.9
		c-0.17-0.04-0.37,0.07-0.55,0.14c-5.22,2.22-10.8-0.05-13.04-5.29c-0.1-0.25-0.37-0.5-0.61-0.6c-5.2-2.09-8.29-6.88-7.97-12.48
		c0.05-0.87,0.26-1.73,0.4-2.63c-3.64-1.17-5.89-3.63-6.73-7.5c-0.94,0.07-1.9,0.1-2.85,0.23c-5.6,0.77-10.63,2.9-15.09,6.38
		c-0.75,0.58-1.55,0.55-2-0.03c-0.56-0.71-0.44-1.52,0.34-2.13c4.66-3.64,9.9-5.96,15.76-6.8c1.65-0.24,3.33-0.3,5-0.4
		c0.94-0.05,1.43,0.45,1.48,1.38c0.2,3.55,2.48,5.97,6.03,6.41c1.2,0.15,1.65,0.94,1.19,2.07c-2.28,5.57,0.45,11.37,6.22,13.18
		c0.62,0.19,0.99,0.57,1.19,1.2c0.94,3.03,3.02,4.73,6.16,5.1c1.3,0.15,2.57-0.11,3.7-0.76c0.81-0.47,1.51-0.52,2.35-0.09
		c1.17,0.59,2.46,0.66,3.74,0.43c1.02-0.18,1.68,0.27,1.83,1.29c0.07,0.43,0.12,0.87,0.17,1.3c0,1.59,0,3.18,0,4.77
		c-0.15,1.09-0.26,2.18-0.45,3.26c-1.15,6.62-3.96,12.43-8.54,17.35c-5.16,5.55-11.47,9.05-18.95,10.38
		c-1.19,0.21-2.39,0.35-3.59,0.52C51.24,84.66,49.65,84.66,48.06,84.66z"/>
</g>
</svg>
