<?xml version="1.0" encoding="utf-8"?>
<!-- Generator: Adobe Illustrator 26.4.1, SVG Export Plug-In . SVG Version: 6.00 Build 0)  -->
<svg version="1.1" xmlns="http://www.w3.org/2000/svg" xmlns:xlink="http://www.w3.org/1999/xlink" x="0px" y="0px"
	 viewBox="0 0 600 600" style="enable-background:new 0 0 600 600;" xml:space="preserve">
<style type="text/css">
	.st0{display:none;}
	.st1{display:inline;}
	.st2{fill:#738FC9;}
	.st3{fill:#5E59A3;}
	.st4{fill:#5172B6;}
	.st5{fill:#524D9B;}
	.st6{fill:#C1CFEC;}
	.st7{fill:#EDE9C5;stroke:#A48A7B;stroke-width:2;stroke-miterlimit:10;}
	.st8{fill:#EDE9C5;stroke:#A48A7B;stroke-width:2.0102;stroke-miterlimit:10;}
	.st9{fill:#C1CEEB;}
	.st10{fill:#B1CEEE;}
	.st11{fill:#EBECF1;}
	.st12{opacity:0.91;fill:#8E7EB1;}
	.st13{fill:#AAB1C9;}
	.st14{fill:#F3F6FC;}
	.st15{opacity:0.91;fill:#927D9F;}
	.st16{fill:none;stroke:#FFFFFF;stroke-width:5;stroke-linecap:round;stroke-linejoin:round;stroke-miterlimit:10;}
	.st17{fill:none;stroke:#5E59A3;stroke-width:4;stroke-linecap:round;stroke-linejoin:round;stroke-miterlimit:10;}
	.st18{fill:#778EC4;}
	.st19{fill:none;stroke:#524D9B;stroke-width:3.9898;stroke-linecap:round;stroke-linejoin:round;stroke-miterlimit:10;}
	.st20{fill:#EFC0DB;}
</style>
<g id="Capa_1" class="st0">
</g>
<g id="Capa_2">
</g>
<g id="Capa_3">
</g>
<g id="Capa_4">
	<g>
		<g>
			<g>
				<path class="st2" d="M498.35,451.67c40.28-9.07,59.45-49.27,62.78-56.98c0.3-0.7-0.02-1.52-0.73-1.82
					c-48.79-20.68-79.5-1.81-90.81,7.69c-0.61,0.52-1.53,0.4-2-0.25l-2.21-1.93c-5.84-5.09-10.71-11.21-14.36-18.05l-6.08-11.39
					c-0.45-0.63-1.33-0.76-1.95-0.29l-68.47,51.56c-0.68,0.51-0.74,1.5-0.13,2.09c7.41,7.22,49.03,46.76,70.66,45.58
					c0.77-0.04,1.41,0.54,1.44,1.31c0.26,8.62,4.28,53.5,58.84,78.16c0.69,0.31,1.51,0.01,1.82-0.68
					c3.77-8.29,23.58-56.59-9.52-92.73C496.93,453.15,497.33,451.89,498.35,451.67z"/>
				
					<ellipse transform="matrix(0.9695 -0.2451 0.2451 0.9695 -107.0315 136.8589)" class="st9" cx="496.33" cy="498.44" rx="7.35" ry="15.3"/>
				
					<ellipse transform="matrix(0.976 -0.2179 0.2179 0.976 -74.2026 121.7431)" class="st9" cx="514.96" cy="397.35" rx="15.3" ry="7.35"/>
				
					<ellipse transform="matrix(0.5951 -0.8036 0.8036 0.5951 -214.157 615.0881)" class="st9" cx="503.37" cy="520.09" rx="3.98" ry="3.61"/>
			</g>
			<path class="st2" d="M432.51,296.44l-0.73-5.13c-3.59-20.95-10.44-34.41-21.51-53.96c-51.67-91.3-167.95-123.23-259.72-71.29
				c-25.51,14.44-46.44,33.83-62.26,56.27C47.2,280.64,40.62,359.49,77.93,425.42c51.67,91.3,167.94,123.22,259.73,71.28
				c30.5-17.26,54.46-41.62,70.95-69.8l-0.59,3.22c4.38-19.37,33.18-34.62,33.18-34.62C455.88,370.09,432.51,296.44,432.51,296.44z"
				/>
			<path class="st3" d="M244.91,524.51c0,0-28.49,35-36.98,71.84c0,0-78.85-25.79-74.78-108.38c0,0,78.11,41.94,113.87,33.06
				L244.91,524.51z"/>
			<path class="st7" d="M186.62,260.18c0,0,36.77,5.36,73.36,54.73c0,0,32.17,35.44,45.33,58.7c13.16,23.26,40.54,54.06,102.7,56.51
				c0,0-21.7,36.94-60.28,60.5C347.74,490.62,203.54,417.36,186.62,260.18z"/>
			<path class="st7" d="M184.04,259.05c0,0-47.59-8.43-64.88,4.6c0,0-2.38,167.78,185.28,247.15c0,0,20.48-5.86,43.3-20.18
				C347.74,490.62,210.92,428.11,184.04,259.05z"/>
			<path class="st8" d="M118.25,266.55c0,0-0.85-3.45-3.26-2.5c-2.41,0.96-35.78,18.14-42.81,31.2
				c-7.03,13.06,17.08,171.2,168.56,226.93c0,0,40.47-2.47,63.13-11.07C303.88,511.11,135.3,455.57,118.25,266.55z"/>
			<path class="st7" d="M71.65,296.61c0,0-0.98-0.96-1.87-0.24c-0.89,0.72-14.41,22.31-15.04,23.33
				c-3.25,5.26-10.16,186.52,186.16,202.8c0.05,0-3.77-1.17-3.82-1.19C229.74,518.5,81.51,459.76,71.65,296.61z"/>
			
				<ellipse transform="matrix(0.8124 -0.5831 0.5831 0.8124 -66.5355 254.0522)" class="st10" cx="361.52" cy="230.42" rx="10.64" ry="17.69"/>
			<path class="st10" d="M326.4,204.87c0,0-32.74-25.38-86.53-27.17c0,0-20.08-5.29-11.73-19.96c8.35-14.67,50.95-5.9,50.95-5.9
				s46.54,8.48,65.06,35.85c0,0,8.88,10.33-6.55,18.63C337.6,206.32,333.27,208.98,326.4,204.87z"/>
			<path class="st11" d="M309.78,61.15c1.08-7.34-0.17-15.16-3.74-21.46c-7.63-13.48-24.96-18.1-38.71-10.32
				c-9.2,5.21-15.18,15.92-15.86,26.48l-0.52-0.22c-0.47-1.19-1.02-2.36-1.67-3.51c-7.73-13.66-25.15-18.43-38.9-10.65
				c-13.75,7.78-18.63,25.17-10.9,38.83c6.1,10.78,18.23,16.02,29.84,13.92l0.24,2.15c-24.93,15.19-22.4,46.42-22.33,47.68
				l104.01,6.46c5.11-3.97,1.25-13.47,1.25-13.47c-0.97-2.24,0.52-13.02,4.19-20.57c7.52,2.43,15.86,1.87,23.13-2.24
				c14.11-7.99,18.83-26.34,10.54-41C342.04,58.59,323.89,53.18,309.78,61.15z"/>
			<path class="st12" d="M196.8,59.55c0,0,19.43,37.02,45.76,17.8c0,0,13.82,11.43,9.74,15.68c0,0-22.54-3.9-22.32,10.25
				c0,0-2.89,9.42,26.31,11.71s38.29,5.37,38.29,5.37l18.67,7.39l-0.97,7.47c0,0,4.41,12-1.52,16.43l-103.56-7.58
				c0,0-5.69-28.79,22.33-47.68l-0.24-2.15c0,0-23.98,4.83-32.68-20.1C196.62,74.14,194.83,67.15,196.8,59.55z"/>
			<path class="st13" d="M272.64,70.49c0,0-4.93,12.31-10.24,14.77c0,0-14.45-0.69-18.62-8.82c0,0-6.35,1,2.64,7.16
				s4.16,6.4,4.16,6.4s-4.84-1.48-3.97,0.63s20.96,5.12,24.88,6.9s20.06,7.36,21.23,6.37c1.17-0.99,1.73-0.76-0.9-1.98
				c-2.63-1.21-7.14-1.91-8.39-3.36c-1.25-1.45-2.89-1.28-0.76-2.49c2.13-1.21,5.13-1.06,9.5-3.86c4.37-2.8,9.83-4.8,8.16-5.27
				c-1.67-0.46-0.53-0.56-5.06,0.81c-4.52,1.37-21.81,5.42-22.08-4.05c-0.28-9.47,2.2-12.93,2.2-12.93S275.21,68.16,272.64,70.49z"
				/>
			<path class="st14" d="M347.35,72.76c5.38,9.87,6.48,21.96-0.92,25.5c-7.64,3.65-20.4-0.51-25.57-9.64s-5.65-21.25,1.27-25.27
				C329.45,59.1,341.72,62.43,347.35,72.76z"/>
			<path class="st14" d="M301.43,38.62c5.38,9.87,6.48,21.96-0.92,25.5c-7.64,3.65-20.4-0.51-25.57-9.64
				c-5.17-9.14-5.65-21.25,1.27-25.27C283.53,24.96,295.8,28.29,301.43,38.62z"/>
			<path class="st14" d="M236.9,42.86c9.12,6.56,15.36,16.98,10.22,23.38c-5.3,6.61-18.61,8.39-27.23,2.39s-14.3-16.7-9.8-23.32
				C214.85,38.3,227.35,35.99,236.9,42.86z"/>
			<path class="st15" d="M399.68,431.3l4.95-0.1l4.59-0.79c0.01,0,0.01,0.01,0.01,0.02c-17.5,27.78-41.9,51.6-71.91,68.58
				c-90.65,51.3-212.81,19.17-261.28-73.54c-28.15-53.85-30.49-111.94-7.86-165.12c1.81-4.24,8.2-2.35,7.37,2.19
				c-7.7,41.97-1.27,86.77,21.39,126.81c51.3,90.66,166.39,122.56,257.04,71.26C371.91,450.44,384.75,444.95,399.68,431.3z"/>
			<path class="st16" d="M197.9,277.81c0,0,8.31,38.77,21.27,54.79"/>
			<path class="st16" d="M127.73,273.07c0,0,4.23,43.02,17.91,72.92"/>
			<path class="st16" d="M83.67,298.97c0,0,6.61,52.39,21.36,68.7"/>
			<path class="st2" d="M431.31,293.21c7.03,11.52,17.26,82.93,17.26,82.93c11.66,161.46-161.41,194.63-161.41,194.63
				c41.11-37.56-14.19-238.85-14.19-238.85L431.31,293.21z"/>
			<g>
				<path class="st4" d="M311.34,266.53c2.39,8.36-7.87,15.28-19.71,18.66c-11.84,3.38-23.37-0.65-25.77-9.01
					c-2.39-8.36-0.14-14.83,11.7-18.21L311.34,266.53z"/>
				<path class="st5" d="M304.37,267.19c4.6,6.09-4.62,15.68-15,18.65s-20.5-0.57-22.6-7.91s0.86-15.73,15-18.65
					C281.76,259.29,303.72,266.33,304.37,267.19z"/>
				<path class="st6" d="M296.68,263.05c-2.17-0.69-16.11-4.3-22.34-1.23c-7.82,3.85-7.83,9.56-4.35,12.83
					c3.57,3.34,5.37,4.3,13.22,2.11C291.74,274.39,301.31,264.53,296.68,263.05z"/>
				<path class="st19" d="M261.58,251.22c0,0,23.55,18.99,60.45,12.48"/>
				
					<ellipse transform="matrix(0.0222 -0.9998 0.9998 0.0222 17.2544 582.6348)" class="st10" cx="306.5" cy="282.5" rx="7.59" ry="9.39"/>
				
					<ellipse transform="matrix(0.0264 -0.9997 0.9997 0.0264 -12.2597 597.6309)" class="st20" cx="300.69" cy="305.11" rx="9.55" ry="32.74"/>
			</g>
			<path class="st2" d="M272.98,331.92c0,0,56.11,196.71,14.19,238.85c0,0,39.39-3.6,38.83-69.1
				C325.43,436.16,272.98,331.92,272.98,331.92z"/>
		</g>
		<path class="st3" d="M272.98,331.92c0,0,56.11,191.62,14.19,238.85C287.17,570.77,356.91,537.42,272.98,331.92z"/>
		<path class="st3" d="M442.61,422.98l9.61,10.51c2.29,2.5,5.1,4.47,8.24,5.75c9.23,3.76,30.14,7.67,67.94-2.05
			c0,0-13.88,11.95-31.01,15.15l-7.6,0.43c-1.23,0.07-2.45,0.05-3.68-0.05c-5.74-0.43-24.52-0.5-17.15,18.26
			c8.66,22.02,39.34,72.28,37.65,76.99c0,0-54.59-18.07-60.24-79.06l-1.14-0.73c0,0-5.83,0.36-12.98-2.84
			C432.25,465.34,443.36,430.14,442.61,422.98z"/>
	</g>
</g>
</svg>
